<svg width="309" height="220" viewBox="0 0 309 220" fill="none" xmlns="http://www.w3.org/2000/svg">
<g clip-path="url(#clip0_1_478)">
<path d="M307.298 204.382C307.264 204.472 307.196 204.546 307.108 204.586C307.021 204.626 306.921 204.629 306.83 204.596L17.9115 97.0876C17.8214 97.0538 17.7483 96.9857 17.7083 96.8981C17.6684 96.8105 17.6648 96.7106 17.6984 96.6204C17.7319 96.5302 17.7999 96.457 17.8874 96.4168C17.9749 96.3766 18.0748 96.3728 18.1651 96.4062L307.084 203.915C307.174 203.949 307.247 204.017 307.287 204.104C307.327 204.192 307.331 204.292 307.298 204.382Z" fill="#F2F2F2"/>
<path d="M153.393 0H84.5479C79.1473 0.00611074 73.9698 2.15417 70.151 5.97291C66.3323 9.79166 64.1842 14.9692 64.1781 20.3698V26.5925C64.0368 26.5537 63.8884 26.5481 63.7446 26.5764C63.6008 26.6048 63.4656 26.6661 63.3495 26.7556C63.2335 26.8452 63.1399 26.9604 63.0761 27.0924C63.0122 27.2243 62.98 27.3692 62.9818 27.5158V32.3011C62.98 32.4477 63.0122 32.5926 63.0761 32.7246C63.1399 32.8565 63.2335 32.9718 63.3495 33.0613C63.4656 33.1508 63.6008 33.2122 63.7446 33.2405C63.8884 33.2688 64.0368 33.2633 64.1781 33.2244V40.4701C64.0368 40.4312 63.8884 40.4257 63.7446 40.454C63.6008 40.4822 63.4655 40.5436 63.3495 40.6331C63.2335 40.7227 63.1399 40.8379 63.0761 40.9699C63.0122 41.1018 62.9799 41.2468 62.9818 41.3933V53.3567C62.9799 53.5032 63.0122 53.6482 63.0761 53.7801C63.1399 53.9121 63.2335 54.0273 63.3495 54.1169C63.4655 54.2064 63.6008 54.2678 63.7446 54.296C63.8884 54.3243 64.0368 54.3188 64.1781 54.2799V58.6544C64.0368 58.6155 63.8884 58.61 63.7446 58.6383C63.6008 58.6666 63.4655 58.7279 63.3495 58.8175C63.2335 58.907 63.1399 59.0223 63.0761 59.1542C63.0122 59.2861 62.9799 59.4311 62.9818 59.5777V71.541C62.9799 71.6876 63.0122 71.8326 63.0761 71.9645C63.1399 72.0964 63.2335 72.2117 63.3495 72.3012C63.4655 72.3908 63.6008 72.4521 63.7446 72.4804C63.8884 72.5087 64.0368 72.5032 64.1781 72.4643V198.799C64.1842 204.2 66.3323 209.377 70.151 213.196C73.9698 217.015 79.1473 219.163 84.5479 219.169H153.393C158.793 219.163 163.971 217.015 167.79 213.196C171.608 209.377 173.757 204.2 173.763 198.799V20.3698C173.757 14.9692 171.608 9.79166 167.79 5.97291C163.971 2.15417 158.793 0.00611074 153.393 0ZM169.456 198.799C169.451 203.058 167.757 207.141 164.746 210.152C161.734 213.164 157.652 214.857 153.393 214.862H84.5479C80.2892 214.857 76.2063 213.164 73.195 210.152C70.1837 207.141 68.4898 203.058 68.4849 198.799V20.3698C68.4898 16.1111 70.1837 12.0282 73.195 9.01688C76.2063 6.00554 80.2892 4.31165 84.5479 4.30682H153.393C157.652 4.31164 161.734 6.00553 164.746 9.01687C167.757 12.0282 169.451 16.1111 169.456 20.3698V198.799Z" fill="#3F3D56"/>
<path d="M153.393 217.255H84.5479C79.6549 217.249 74.9638 215.303 71.5039 211.843C68.044 208.383 66.0978 203.692 66.0923 198.799V20.3698C66.0978 15.4767 68.044 10.7857 71.5039 7.3258C74.9638 3.8659 79.6549 1.91969 84.5479 1.91414H153.393C158.286 1.91969 162.977 3.8659 166.437 7.32579C169.897 10.7857 171.843 15.4767 171.849 20.3698V198.799C171.843 203.692 169.897 208.383 166.437 211.843C162.977 215.303 158.286 217.249 153.393 217.255Z" fill="#E6E6E6"/>
<path d="M155.094 214.384H82.8467C79.5466 214.38 76.3827 213.067 74.0491 210.734C71.7156 208.4 70.4029 205.236 70.3992 201.936V17.2329C70.4029 13.9327 71.7155 10.7688 74.0491 8.43528C76.3826 6.10173 79.5466 4.78909 82.8467 4.78535H92.2686C92.814 4.78598 93.337 5.00293 93.7227 5.38863C94.1084 5.77433 94.3253 6.29727 94.3259 6.84272C94.3277 8.45409 94.9686 9.99894 96.108 11.1383C97.2474 12.2777 98.7923 12.9186 100.404 12.9204H136.58C138.192 12.9187 139.736 12.2777 140.876 11.1383C142.015 9.99893 142.656 8.45408 142.658 6.84271C142.659 6.29726 142.876 5.77433 143.261 5.38863C143.647 5.00293 144.17 4.78597 144.715 4.78534H155.094C158.394 4.78908 161.558 6.10171 163.892 8.43526C166.225 10.7688 167.538 13.9327 167.542 17.2329V201.936C167.538 205.236 166.225 208.4 163.892 210.734C161.558 213.067 158.394 214.38 155.094 214.384Z" fill="white"/>
<path d="M122.081 8.97254H113.467C113.213 8.97254 112.97 8.87171 112.791 8.69222C112.611 8.51273 112.51 8.2693 112.51 8.01547C112.51 7.76164 112.611 7.5182 112.791 7.33871C112.97 7.15923 113.213 7.0584 113.467 7.0584H122.081C122.335 7.0584 122.578 7.15923 122.758 7.33871C122.937 7.5182 123.038 7.76164 123.038 8.01547C123.038 8.2693 122.937 8.51273 122.758 8.69222C122.578 8.87171 122.335 8.97254 122.081 8.97254Z" fill="white"/>
<path d="M128.063 8.73327C128.327 8.73327 128.541 8.51902 128.541 8.25474C128.541 7.99045 128.327 7.7762 128.063 7.7762C127.798 7.7762 127.584 7.99045 127.584 8.25474C127.584 8.51902 127.798 8.73327 128.063 8.73327Z" fill="white"/>
<path d="M169.869 42.1694H67.9766V43.26H169.869V42.1694Z" fill="#E6E6E6"/>
<path d="M169.869 63.9812H67.9766V65.0718H169.869V63.9812Z" fill="#E6E6E6"/>
<path d="M169.869 109.059H67.9766V110.149H169.869V109.059Z" fill="#E6E6E6"/>
<path d="M169.869 154.136H67.9766V155.227H169.869V154.136Z" fill="#E6E6E6"/>
<path d="M169.869 189.399H67.9766V190.489H169.869V189.399Z" fill="#E6E6E6"/>
<path d="M141.973 42.7147H140.883V109.604H141.973V42.7147Z" fill="#E6E6E6"/>
<path d="M90.9646 109.585H89.874V189.944H90.9646V109.585Z" fill="#E6E6E6"/>
<path d="M167.542 131.628H90.4194V132.718H167.542V131.628Z" fill="#E6E6E6"/>
<path d="M142.091 189.944H141V214.384H142.091V189.944Z" fill="#E6E6E6"/>
<path d="M141.246 86.9666H70.2173V88.0572H141.246V86.9666Z" fill="#E6E6E6"/>
<path d="M85.0508 4.09626L84.0447 4.5173L100.118 42.9252L101.124 42.5042L85.0508 4.09626Z" fill="#E6E6E6"/>
<path d="M134.554 12.9204H133.463V42.7147H134.554V12.9204Z" fill="#E6E6E6"/>
<path d="M162.676 59.2553C162.676 69.0271 147.568 91.797 143.153 98.2426C143.019 98.4375 142.841 98.5969 142.632 98.707C142.423 98.8172 142.191 98.8748 141.955 98.8748C141.719 98.8748 141.486 98.8172 141.277 98.707C141.069 98.5969 140.89 98.4375 140.757 98.2426C136.341 91.797 121.233 69.0271 121.233 59.2553C121.233 53.7597 123.417 48.4892 127.302 44.6032C131.188 40.7172 136.459 38.5341 141.955 38.5341C147.45 38.5341 152.721 40.7172 156.607 44.6032C160.493 48.4892 162.676 53.7597 162.676 59.2553Z" fill="#2D6A4F"/>
<path d="M141.955 68.3435C147.777 68.3435 152.497 63.6236 152.497 57.8012C152.497 51.9788 147.777 47.2588 141.955 47.2588C136.132 47.2588 131.412 51.9788 131.412 57.8012C131.412 63.6236 136.132 68.3435 141.955 68.3435Z" fill="white"/>
<path d="M141.264 109.918L101.339 189.688L102.314 190.176L142.239 110.406L141.264 109.918Z" fill="#E6E6E6"/>
<path d="M198.763 127.464C199.234 127.717 199.754 127.864 200.288 127.894C200.821 127.924 201.355 127.837 201.851 127.639C202.347 127.44 202.794 127.136 203.16 126.746C203.525 126.356 203.801 125.891 203.968 125.383L216.956 125.158L213.143 119.588L201.393 120.655C200.522 120.432 199.599 120.537 198.799 120.949C197.999 121.361 197.378 122.052 197.054 122.891C196.73 123.731 196.724 124.66 197.039 125.503C197.355 126.345 197.968 127.043 198.763 127.464Z" fill="#FFB8B8"/>
<path d="M206.56 127.302C206.359 127.302 206.16 127.261 205.975 127.182C205.79 127.103 205.622 126.988 205.483 126.842C205.344 126.697 205.236 126.525 205.165 126.336C205.094 126.148 205.062 125.947 205.071 125.746L205.333 119.79C205.347 119.435 205.488 119.097 205.73 118.838C205.972 118.578 206.3 118.414 206.652 118.375L221.699 116.649L221.195 126.574L206.634 127.3C206.609 127.301 206.585 127.302 206.56 127.302Z" fill="#2D6A4F"/>
<path d="M224.886 208.94L220.649 210.324L213.296 194.641L219.549 192.599L224.886 208.94Z" fill="#FFB8B8"/>
<path d="M227.308 212.694L213.647 217.156L213.591 216.983C213.363 216.285 213.275 215.548 213.331 214.816C213.388 214.084 213.588 213.369 213.92 212.714C214.253 212.059 214.711 211.476 215.269 210.998C215.826 210.521 216.473 210.157 217.171 209.929L225.515 207.204L227.308 212.694Z" fill="#2F2E41"/>
<path d="M237.364 215.499L232.907 215.498L230.787 198.308L237.365 198.308L237.364 215.499Z" fill="#FFB8B8"/>
<path d="M238.501 219.819L224.13 219.818V219.637C224.13 218.902 224.275 218.175 224.556 217.496C224.837 216.818 225.249 216.201 225.769 215.682C226.288 215.162 226.905 214.75 227.583 214.469C228.262 214.188 228.989 214.043 229.724 214.043H229.724L238.501 214.044L238.501 219.819Z" fill="#2F2E41"/>
<path d="M230.595 211.315C230.231 211.314 229.879 211.18 229.607 210.939C229.334 210.697 229.16 210.363 229.116 210.002L223.37 161.963L214.959 175.465L224.828 200.686C224.962 201.034 224.962 201.421 224.826 201.769C224.69 202.117 224.43 202.402 224.095 202.568L215.723 206.665C215.532 206.758 215.323 206.81 215.111 206.816C214.898 206.822 214.687 206.782 214.49 206.7C214.294 206.618 214.118 206.494 213.974 206.338C213.829 206.182 213.72 205.996 213.653 205.794L204.375 177.763C203.676 175.654 203.585 173.39 204.112 171.231L210.111 146.612L210.181 146.574L223.704 139.167L223.781 139.195L239.707 145.008L238.04 176.568L239.251 209.325C239.268 209.714 239.13 210.095 238.869 210.383C238.607 210.672 238.243 210.846 237.854 210.868L230.689 211.312C230.657 211.314 230.626 211.315 230.595 211.315Z" fill="#2F2E41"/>
<path d="M221.823 155.967C219.443 155.967 217.439 155.289 216.185 153.566L216.144 153.511L216.956 144.995L209.738 149.002C209.588 149.085 209.417 149.12 209.246 149.102C209.076 149.085 208.915 149.015 208.786 148.904C208.656 148.792 208.564 148.643 208.522 148.477C208.479 148.311 208.489 148.136 208.549 147.976L217.551 124.071L223.495 104.598C223.789 103.039 224.551 101.607 225.677 100.49C226.804 99.374 228.244 98.6263 229.805 98.3462C235.1 97.3737 238.253 99.1603 241.895 103.125C242.775 104.089 243.424 105.243 243.791 106.496C244.158 107.75 244.234 109.07 244.013 110.358L240.568 130.047L241.58 147.7C241.657 148.004 241.636 148.325 241.52 148.617C241.404 148.909 241.199 149.156 240.934 149.324C238.118 151.117 229.485 155.966 221.823 155.967Z" fill="#2D6A4F"/>
<path d="M233.869 95.3977C238.8 95.3977 242.797 91.4002 242.797 86.4691C242.797 81.5379 238.8 77.5404 233.869 77.5404C228.937 77.5404 224.94 81.5379 224.94 86.4691C224.94 91.4002 228.937 95.3977 233.869 95.3977Z" fill="#FFB8B8"/>
<path d="M236.194 150.115C236.68 149.892 237.111 149.566 237.457 149.158C237.803 148.751 238.055 148.273 238.197 147.757C238.338 147.242 238.364 146.702 238.274 146.175C238.184 145.648 237.979 145.148 237.675 144.709L245.332 134.215L238.589 133.895L232.351 143.909C231.647 144.47 231.174 145.269 231.02 146.155C230.866 147.042 231.043 147.954 231.516 148.719C231.99 149.484 232.728 150.049 233.59 150.306C234.452 150.563 235.379 150.495 236.194 150.115Z" fill="#FFB8B8"/>
<path d="M240.341 144.193C239.968 144.246 239.588 144.156 239.278 143.94L234.209 140.405C233.904 140.194 233.689 139.877 233.606 139.516C233.524 139.154 233.579 138.775 233.762 138.453L242.787 122.395L233.71 111.469C233.233 110.895 232.881 110.229 232.676 109.511C232.471 108.794 232.418 108.042 232.52 107.303C232.621 106.564 232.875 105.854 233.266 105.219C233.657 104.584 234.176 104.037 234.79 103.613C235.404 103.189 236.099 102.898 236.832 102.757C237.564 102.617 238.318 102.63 239.045 102.797C239.772 102.964 240.457 103.28 241.055 103.726C241.653 104.171 242.152 104.737 242.519 105.386L252.542 123.075C252.613 123.201 252.65 123.344 252.65 123.488C252.65 123.633 252.613 123.775 252.541 123.901L241.426 143.454C241.324 143.634 241.185 143.791 241.018 143.915C240.852 144.038 240.661 144.126 240.459 144.171C240.42 144.181 240.381 144.188 240.341 144.193Z" fill="#2D6A4F"/>
<path d="M230.3 85.3292C229.416 84.6696 228.193 84.7726 227.146 84.4268C226.523 84.221 225.964 83.8548 225.527 83.3651C225.09 82.8754 224.789 82.2793 224.655 81.6366C224.521 80.994 224.558 80.3273 224.762 79.7035C224.967 79.0797 225.332 78.5207 225.821 78.0826C226.952 77.0692 228.561 76.8392 230.068 76.6538C232.133 76.3998 234.218 76.1455 236.288 76.3474C238.358 76.5494 240.443 77.2487 241.956 78.6761C243.624 80.2498 244.446 82.5925 244.452 84.8861C244.394 87.1905 243.761 89.4439 242.611 91.4419C242.256 92.2011 241.72 92.8618 241.051 93.3665C240.355 93.8261 239.373 93.9464 238.702 93.45C238.123 93.0209 237.91 92.2692 237.649 91.5972C237.387 90.9252 236.94 90.2094 236.226 90.1057C235.307 89.9722 234.606 90.9069 233.729 91.2127C232.502 91.6404 231.139 90.6944 230.639 89.4955C230.138 88.2966 230.27 86.9401 230.411 85.6486" fill="#2F2E41"/>
<path d="M309 219.572C309 219.668 308.961 219.76 308.893 219.829C308.825 219.897 308.733 219.935 308.636 219.935H0.363529C0.267115 219.935 0.17465 219.897 0.106475 219.829C0.0383 219.761 0 219.668 0 219.572C0 219.475 0.0383 219.383 0.106475 219.315C0.17465 219.247 0.267115 219.208 0.363529 219.208H308.636C308.733 219.209 308.825 219.247 308.893 219.315C308.961 219.383 309 219.475 309 219.572Z" fill="#CCCCCC"/>
<path d="M141.955 114.148C144.565 114.148 146.681 112.032 146.681 109.422C146.681 106.812 144.565 104.696 141.955 104.696C139.345 104.696 137.229 106.812 137.229 109.422C137.229 112.032 139.345 114.148 141.955 114.148Z" fill="#2D6A4F"/>
<path d="M208.488 57.7507C206.514 60.3812 197.848 63.459 195.358 64.3023C195.282 64.3278 195.202 64.3346 195.124 64.3221C195.045 64.3096 194.971 64.2781 194.907 64.2305C194.844 64.1828 194.793 64.1203 194.759 64.0485C194.725 63.9767 194.709 63.8977 194.713 63.8183C194.826 61.1915 195.358 52.0106 197.332 49.3801C198.442 47.9008 200.094 46.923 201.925 46.6618C203.756 46.4007 205.616 46.8775 207.095 47.9875C208.574 49.0976 209.552 50.7498 209.813 52.5807C210.075 54.4117 209.598 56.2714 208.488 57.7507Z" fill="#2D6A4F" fill-opacity="0.2"/>
<path d="M203.203 56.7219C205.163 56.7219 206.751 55.1334 206.751 53.174C206.751 51.2145 205.163 49.6261 203.203 49.6261C201.244 49.6261 199.656 51.2145 199.656 53.174C199.656 55.1334 201.244 56.7219 203.203 56.7219Z" fill="white"/>
<path d="M192.777 68.6602C193.655 68.6602 194.367 67.9481 194.367 67.0697C194.367 66.1913 193.655 65.4793 192.777 65.4793C191.899 65.4793 191.187 66.1913 191.187 67.0697C191.187 67.9481 191.899 68.6602 192.777 68.6602Z" fill="#2D6A4F" fill-opacity="0.2"/>
<path d="M35.5084 129.904C38.4127 134.341 38.3199 149.171 38.2307 153.41C38.2281 153.538 38.1943 153.664 38.1323 153.776C38.0702 153.888 37.9818 153.983 37.8746 154.053C37.7674 154.123 37.6448 154.166 37.5172 154.178C37.3897 154.19 37.2612 154.171 37.1428 154.122C33.2222 152.507 19.5942 146.658 16.6899 142.221C15.88 140.985 15.3215 139.602 15.0464 138.151C14.7712 136.699 14.7848 135.208 15.0863 133.761C15.3878 132.315 15.9713 130.942 16.8035 129.722C17.6358 128.501 18.7004 127.456 19.9365 126.647C21.1727 125.838 22.5561 125.28 24.0079 125.006C25.4596 124.732 26.9511 124.747 28.3972 125.049C29.8433 125.351 31.2157 125.936 32.4358 126.769C33.656 127.602 34.7001 128.667 35.5084 129.904Z" fill="#2D6A4F" fill-opacity="0.2"/>
<path d="M25.667 141.124C28.8268 141.124 31.3884 138.562 31.3884 135.402C31.3884 132.242 28.8268 129.681 25.667 129.681C22.5071 129.681 19.9456 132.242 19.9456 135.402C19.9456 138.562 22.5071 141.124 25.667 141.124Z" fill="white"/>
<path d="M41.0096 161.407C42.4261 161.407 43.5744 160.259 43.5744 158.843C43.5744 157.426 42.4261 156.278 41.0096 156.278C39.5931 156.278 38.4448 157.426 38.4448 158.843C38.4448 160.259 39.5931 161.407 41.0096 161.407Z" fill="#F2F2F2"/>
</g>
<defs>
<clipPath id="clip0_1_478">
<rect width="309" height="219.935" fill="white"/>
</clipPath>
</defs>
</svg>
