<svg width="309" height="184" viewBox="0 0 309 184" fill="none" xmlns="http://www.w3.org/2000/svg">
<g clip-path="url(#clip0_1_338)">
<path d="M33.566 129.564C32.2315 129.708 30.7745 129.923 29.2246 130.24C22.6575 131.579 22.5181 136.038 22.5772 137.06L22.5308 137.031C21.8719 138.091 21.4581 139.163 21.2047 140.173L20.9048 126.502C21.0991 126.097 21.2765 125.636 21.4243 125.168C21.9142 126.684 22.7208 128.111 23.4176 128.018C24.3214 127.896 24.7142 125.235 24.5452 123.347C25.694 124.826 27.6282 126.409 28.3588 125.919C28.9416 125.531 28.5953 123.926 27.9618 122.465C29.2879 123.263 30.7576 123.787 31.2137 123.28C31.8345 122.587 30.3437 120.227 28.9712 118.909C30.8083 119.082 33.1479 118.786 33.3042 117.95C33.4309 117.262 32.0372 116.392 30.5464 115.83C32.0415 115.437 33.4436 114.749 33.3971 114.069C33.3422 113.262 31.2644 112.718 29.4695 112.637C30.8209 111.582 32.0626 110.116 31.6825 109.457C31.3319 108.849 29.7102 109.086 28.211 109.622C29.0979 108.355 29.7229 106.923 29.2457 106.433C28.6544 105.825 26.5555 106.877 25.1196 108.038C25.3983 106.227 25.259 103.942 24.4439 103.735C23.7639 103.562 22.8011 104.892 22.1422 106.341C21.8508 104.82 21.2596 103.376 20.5796 103.376C19.6083 103.376 18.8228 106.303 18.8228 108.211C18.8228 108.321 18.8228 108.423 18.8312 108.52C18.7341 108.406 18.6201 108.287 18.4934 108.165C17.1251 106.835 14.4771 105.361 13.7972 106.058C13.3242 106.548 13.945 107.975 14.8318 109.246C13.3326 108.71 11.7067 108.473 11.3604 109.081C10.8916 109.897 12.8976 111.936 14.5278 112.925C14.4306 112.912 14.3251 112.903 14.2153 112.895C12.3106 112.764 9.33744 113.351 9.26987 114.318C9.22342 114.998 10.6213 115.687 12.1205 116.079C10.6297 116.641 9.24031 117.511 9.36278 118.199C9.51482 119.036 11.8545 119.331 13.6958 119.158C12.3233 120.476 10.8325 122.836 11.4533 123.529C11.9094 124.036 13.3791 123.512 14.7052 122.714C14.0674 124.175 13.7254 125.78 14.3082 126.169C15.0768 126.684 17.1926 124.889 18.3033 123.347C18.1893 125.235 18.6412 127.828 19.5365 127.93C19.9124 127.972 20.3094 127.571 20.6683 126.958L19.6548 141.651C19.4183 143.361 20.9344 144.48 21.0695 145.181L21.2891 155.131C21.04 154.422 20.7106 153.696 20.2587 152.978L20.2122 153.007C20.2713 151.985 20.132 147.525 13.5649 146.187C12.015 145.87 10.558 145.654 9.22342 145.511C7.64816 145.342 7.03157 147.5 8.45479 148.197C10.5157 149.206 12.4542 150.477 13.4677 151.981C16.0524 155.828 19.621 153.607 20.132 153.261C20.6979 154.207 21.0695 155.157 21.306 156.061L21.4243 161.344C21.3947 161.47 21.3778 161.538 21.3736 161.542L21.4285 161.559L21.7115 174.347L24.3214 174.326L23.3881 161.255C23.5443 160.55 24.0258 158.147 23.3881 155.655L22.4548 145.384L21.2385 141.347C21.4158 140.097 21.8255 138.695 22.6617 137.305C23.1685 137.652 26.7413 139.877 29.3259 136.026C30.3353 134.522 32.278 133.251 34.3389 132.242C35.7621 131.545 35.1497 129.387 33.5703 129.556L33.566 129.564ZM21.6439 159.819L21.5932 157.581C21.6903 158.426 21.6861 159.19 21.6439 159.819Z" fill="#F2F2F2"/>
<path d="M0 174.964C0 175.242 0.22383 175.466 0.502563 175.466H308.497C308.776 175.466 309 175.242 309 174.964C309 174.685 308.776 174.461 308.497 174.461H0.502563C0.22383 174.461 0 174.685 0 174.964Z" fill="#3F3D56"/>
<path d="M186.911 175.407C199.506 175.407 209.716 165.197 209.716 152.602C209.716 140.007 199.506 129.796 186.911 129.796C174.316 129.796 164.106 140.007 164.106 152.602C164.106 165.197 174.316 175.407 186.911 175.407Z" fill="#3F3D56"/>
<path d="M186.911 167.805C195.308 167.805 202.115 160.998 202.115 152.602C202.115 144.205 195.308 137.398 186.911 137.398C178.514 137.398 171.708 144.205 171.708 152.602C171.708 160.998 178.514 167.805 186.911 167.805Z" fill="white"/>
<path d="M186.911 161.259C191.693 161.259 195.569 157.383 195.569 152.602C195.569 147.82 191.693 143.944 186.911 143.944C182.13 143.944 178.254 147.82 178.254 152.602C178.254 157.383 182.13 161.259 186.911 161.259Z" fill="#3F3D56"/>
<path d="M55.1469 175.407C67.742 175.407 77.9523 165.197 77.9523 152.602C77.9523 140.007 67.742 129.796 55.1469 129.796C42.5519 129.796 32.3416 140.007 32.3416 152.602C32.3416 165.197 42.5519 175.407 55.1469 175.407Z" fill="#3F3D56"/>
<path d="M55.1469 167.805C63.5436 167.805 70.3505 160.998 70.3505 152.602C70.3505 144.205 63.5436 137.398 55.1469 137.398C46.7502 137.398 39.9434 144.205 39.9434 152.602C39.9434 160.998 46.7502 167.805 55.1469 167.805Z" fill="white"/>
<path d="M218.108 141.756C215.139 134.269 204.758 111.392 186.269 103.819C186.126 103.76 185.978 103.722 185.826 103.701L126.528 95.2082C125.552 95.0688 124.64 95.7361 124.484 96.7116L123.445 103.131C123.373 103.57 123.466 104.022 123.707 104.398C126.718 109.069 146.018 140.781 115.112 140.781C84.2068 140.781 75.6886 118.664 74.3372 114.757C74.2105 114.39 74.2062 113.993 74.3203 113.621L83.6874 83.9533C83.8521 83.4254 83.7634 82.8848 83.4931 82.4541L87.6107 74.8058L95.1534 79.0755L99.0599 79.1219L112.393 86.0902L115.108 81.6559L87.6107 67.9389C87.6107 67.9389 87.6572 64.763 78.7884 62.2291L64.8518 55.8943L63.1625 58.0059L67.3857 61.3844L67.8081 63.9184L70.7643 64.763L76.6768 76.1657L74.9875 79.4345L77.04 80.4354L76.453 80.3002C75.6041 80.1059 74.7384 80.5452 74.392 81.3434L65.0756 102.696C64.932 103.021 64.6955 103.3 64.3957 103.494L61.0763 105.635C60.768 105.834 60.523 106.125 60.3836 106.467L56.5912 115.661C56.4729 115.948 56.4392 116.248 56.4687 116.54C51.7429 117.435 37.8528 121.303 30.2214 136.562L39.0902 143.741C39.0902 143.741 52.993 134.746 75.9673 144.113C79.9625 150.33 85.7863 155.486 94.1989 155.972C116.375 157.256 153.117 158.523 157.34 153.455C160.432 149.743 162.581 147.428 163.515 146.453C163.844 146.111 164.292 145.912 164.765 145.895L216.478 144.244C217.732 144.206 218.564 142.931 218.104 141.765L218.108 141.756Z" fill="#2D6A4F"/>
<path d="M75.4183 75.3168C79.1501 75.3168 82.1754 72.2915 82.1754 68.5597C82.1754 64.8278 79.1501 61.8025 75.4183 61.8025C71.6864 61.8025 68.6611 64.8278 68.6611 68.5597C68.6611 72.2915 71.6864 75.3168 75.4183 75.3168Z" fill="#3F3D56"/>
<path d="M183.63 103.849C183.549 103.849 183.469 103.849 183.389 103.845L126.891 101.657C124.391 101.56 122.249 99.9677 121.434 97.6027L120.662 95.3518C120.032 93.5189 120.307 91.5509 121.413 89.9587C122.524 88.3666 124.272 87.429 126.211 87.3826L184.584 86.0396C186.392 85.9973 188.132 86.7702 189.31 88.1639C190.488 89.5575 190.97 91.382 190.628 93.1768L189.525 98.9542C188.98 101.822 186.518 103.845 183.625 103.845L183.63 103.849Z" fill="#3F3D56"/>
<path d="M55.1468 161.259C59.9283 161.259 63.8044 157.383 63.8044 152.602C63.8044 147.82 59.9283 143.944 55.1468 143.944C50.3654 143.944 46.4893 147.82 46.4893 152.602C46.4893 157.383 50.3654 161.259 55.1468 161.259Z" fill="#3F3D56"/>
<path d="M206.33 127.955C204.978 127.955 203.69 127.233 203.002 125.987L198.724 118.242C198.044 117.013 198.086 115.572 198.829 114.386C199.572 113.195 200.856 112.528 202.25 112.604L210.016 113.001C211.461 113.077 212.762 113.985 213.327 115.319L215.595 120.683C216.009 121.667 216.001 122.739 215.566 123.715C215.131 124.686 214.337 125.417 213.332 125.763L207.58 127.748C207.17 127.892 206.748 127.959 206.334 127.959L206.33 127.955Z" fill="#3F3D56"/>
<path d="M108.119 179.432C108.055 179.432 107.988 179.432 107.924 179.419L106.201 179.229C105.64 179.166 105.15 178.849 104.863 178.359C104.575 177.869 104.537 177.291 104.757 176.767L113.727 155.465C113.972 154.882 114.517 154.468 115.146 154.388C115.759 154.312 116.354 154.553 116.747 155.03C117.135 155.507 117.254 156.141 117.055 156.724L109.812 178.215C109.567 178.942 108.875 179.428 108.123 179.428L108.119 179.432Z" fill="#3F3D56"/>
<path d="M154.688 30.7788C154.688 30.7788 151.407 24.2159 152.061 18.3119L141.14 23.971L141.562 34.7148L154.688 30.7788Z" fill="#A0616A"/>
<path d="M147.91 27.0033C153.351 27.0033 157.762 22.592 157.762 17.1505C157.762 11.709 153.351 7.29773 147.91 7.29773C142.468 7.29773 138.057 11.709 138.057 17.1505C138.057 22.592 142.468 27.0033 147.91 27.0033Z" fill="#A0616A"/>
<path d="M157.974 171.855H151.96L149.101 148.666H157.974V171.855Z" fill="#A0616A"/>
<path d="M137.377 171.716C137.191 172.033 137.09 173.05 137.09 173.414C137.09 174.541 138.002 175.454 139.13 175.454H157.746C158.514 175.454 159.139 174.828 159.139 174.06V173.283C159.139 173.283 160.06 170.952 158.164 168.084C158.164 168.084 155.807 170.331 152.285 166.813L151.246 164.933L143.729 170.432L139.56 170.943C138.648 171.057 137.842 170.926 137.373 171.716H137.377Z" fill="#2F2E41"/>
<path d="M140.249 30.7788L154.688 28.8108L165.846 34.0602L166.5 74.7467C166.5 74.7467 139.058 78.0281 134.733 73.7627C130.409 69.4972 133.69 35.3737 133.69 35.3737L140.253 30.7788H140.249Z" fill="#E6E6E6"/>
<path d="M145.443 19.6591H142.795C142.795 19.6591 140.498 16.8295 140.806 18.5526C141.115 20.2757 139.877 22.1296 139.877 22.1296L138.023 21.5131C138.023 21.5131 134.315 5.91672 145.443 5.05941C156.572 4.2021 159.046 12.8597 159.046 12.8597C159.046 12.8597 158.43 17.1885 157.192 15.9511C155.955 14.7137 149.156 14.0971 149.156 14.0971L145.448 19.6633L145.443 19.6591Z" fill="#2F2E41"/>
<path d="M138.437 166.644L132.655 168.274L123.601 146.74L132.14 144.328L138.437 166.644Z" fill="#A0616A"/>
<path d="M118.579 172.109C118.487 172.463 118.668 173.469 118.765 173.823C119.069 174.909 120.197 175.538 121.282 175.234L139.197 170.174C139.936 169.968 140.367 169.195 140.16 168.456L139.949 167.708C139.949 167.708 140.202 165.216 137.597 162.97C137.597 162.97 135.941 165.774 131.595 163.341L130.083 161.812L124.344 169.144L120.476 170.77C119.631 171.125 118.816 171.222 118.579 172.109Z" fill="#2F2E41"/>
<path d="M164.528 70.8107L166.496 76.7654V97.2269L160.588 158.987H149.05L147.749 114.901L148.776 93.1261L126.768 126.422L136.44 150.203L125.793 157.302C125.793 157.302 109.871 121.02 112.253 117.503C114.635 113.989 135.971 72.4873 135.971 72.4873C135.971 72.4873 164.52 71.4695 164.52 70.8149L164.528 70.8107Z" fill="#2F2E41"/>
<path d="M170.436 47.186L173.608 52.3806C173.608 52.3806 178.093 70.0083 173.608 70.0801C169.123 70.1518 160.068 61.0973 160.068 61.0973L161.251 56.3715L164.532 57.6849L163.877 47.186H170.44H170.436Z" fill="#A0616A"/>
<path d="M160.592 33.98C160.592 33.98 171.091 32.1302 172.075 39.0014C173.059 45.8726 173.608 52.3848 173.608 52.3848L162.231 53.3265L160.592 33.98Z" fill="#E6E6E6"/>
<path d="M162.873 60.522C163.822 59.1884 162.432 56.5683 159.766 54.6699C157.101 52.7714 154.17 52.3136 153.22 53.6473C152.27 54.9809 153.661 57.601 156.326 59.4995C158.992 61.3979 161.923 61.8557 162.873 60.522Z" fill="#A0616A"/>
<path d="M249.372 129.564C248.038 129.708 246.581 129.923 245.031 130.24C238.464 131.579 238.324 136.038 238.384 137.06L238.337 137.031C237.678 138.091 237.264 139.163 237.011 140.173L236.711 126.502C236.905 126.097 237.083 125.636 237.231 125.168C237.721 126.684 238.527 128.111 239.224 128.018C240.128 127.896 240.521 125.235 240.352 123.347C241.5 124.826 243.435 126.409 244.165 125.919C244.748 125.531 244.402 123.926 243.768 122.465C245.094 123.263 246.564 123.787 247.02 123.28C247.641 122.587 246.15 120.227 244.778 118.909C246.615 119.082 248.954 118.786 249.111 117.95C249.237 117.262 247.844 116.392 246.353 115.83C247.848 115.437 249.25 114.749 249.203 114.069C249.149 113.262 247.071 112.718 245.276 112.637C246.627 111.582 247.869 110.116 247.489 109.457C247.138 108.849 245.517 109.086 244.017 109.622C244.904 108.355 245.529 106.923 245.052 106.433C244.461 105.825 242.362 106.877 240.926 108.038C241.205 106.227 241.065 103.942 240.25 103.735C239.57 103.562 238.607 104.892 237.949 106.341C237.657 104.82 237.066 103.376 236.386 103.376C235.415 103.376 234.629 106.303 234.629 108.211C234.629 108.321 234.629 108.423 234.638 108.52C234.54 108.406 234.426 108.287 234.3 108.165C232.931 106.835 230.283 105.361 229.604 106.058C229.131 106.548 229.751 107.975 230.638 109.246C229.139 108.71 227.513 108.473 227.167 109.081C226.698 109.897 228.704 111.936 230.334 112.925C230.237 112.912 230.131 112.903 230.022 112.895C228.117 112.764 225.144 113.351 225.076 114.318C225.03 114.998 226.428 115.687 227.927 116.079C226.436 116.641 225.047 117.511 225.169 118.199C225.321 119.036 227.661 119.331 229.502 119.158C228.13 120.476 226.639 122.836 227.26 123.529C227.716 124.036 229.185 123.512 230.512 122.714C229.874 124.175 229.532 125.78 230.115 126.169C230.883 126.684 232.999 124.889 234.11 123.347C233.996 125.235 234.448 127.828 235.343 127.93C235.719 127.972 236.116 127.571 236.475 126.958L235.461 141.651C235.225 143.361 236.741 144.48 236.876 145.181L237.096 155.131C236.846 154.422 236.517 153.696 236.065 152.978L236.019 153.007C236.078 151.985 235.938 147.525 229.371 146.187C227.821 145.87 226.364 145.654 225.03 145.511C223.455 145.342 222.838 147.5 224.261 148.197C226.322 149.206 228.261 150.477 229.274 151.981C231.859 155.828 235.427 153.607 235.938 153.261C236.504 154.207 236.876 155.157 237.112 156.061L237.231 161.344C237.201 161.47 237.184 161.538 237.18 161.542L237.235 161.559L237.518 174.347L240.128 174.326L239.194 161.255C239.351 160.55 239.832 158.147 239.194 155.655L238.261 145.384L237.045 141.347C237.222 140.097 237.632 138.695 238.468 137.305C238.975 137.652 242.548 139.877 245.132 136.026C246.142 134.522 248.084 133.251 250.145 132.242C251.568 131.545 250.956 129.387 249.377 129.556L249.372 129.564ZM237.45 159.819L237.4 157.581C237.497 158.426 237.493 159.19 237.45 159.819Z" fill="#F2F2F2"/>
<path d="M218.978 172.759L223.518 171.779L221.892 153.814L215.198 155.258L218.978 172.759Z" fill="#A0616A"/>
<path d="M234.503 169.3C234.697 169.507 234.938 170.259 234.997 170.538C235.183 171.387 234.642 172.227 233.789 172.409L219.738 175.445C219.16 175.572 218.585 175.2 218.459 174.622L218.332 174.034C218.332 174.034 217.255 172.425 218.218 169.951C218.218 169.951 220.363 171.264 222.445 168.029L222.923 166.441L229.494 169.364L232.72 169.072C233.426 169.009 234.017 168.777 234.498 169.3H234.503Z" fill="#2F2E41"/>
<path d="M227.095 171.387L230.879 168.701L222.319 152.821L216.731 156.783L227.095 171.387Z" fill="#A0616A"/>
<path d="M240.005 162.095C240.263 162.21 240.783 162.805 240.943 163.037C241.446 163.747 241.281 164.731 240.571 165.233L228.848 173.553C228.362 173.895 227.695 173.781 227.348 173.3L227.002 172.81C227.002 172.81 225.38 171.754 225.292 169.098C225.292 169.098 227.779 169.461 228.425 165.668L228.24 164.021L235.432 164.123L238.287 162.585C238.912 162.248 239.363 161.804 240.01 162.095H240.005Z" fill="#2F2E41"/>
<path d="M172.561 82.5512C172.561 82.5512 165.504 92.1463 179.618 102.937L208.441 93.7258L198.145 72.255L189.027 67.2547L172.556 82.547L172.561 82.5512Z" fill="#2F2E41"/>
<path d="M208.445 93.7301L219.62 115.492L226.681 160.791L217.859 161.378L209.032 118.436L193.444 95.1997L204.328 90.1995" fill="#2F2E41"/>
<path d="M179.622 96.1035V102.941L199.623 124.906C199.623 124.906 199.623 141.376 207.271 149.025L216.094 162.556L223.742 158.438L212.567 119.027L192.566 93.143L179.626 96.1035H179.622Z" fill="#2F2E41"/>
<path d="M193.833 28.3251L190.066 42.6883L175.703 39.8629C175.703 39.8629 185.724 29.5287 184.314 24.8199L193.837 28.3251H193.833Z" fill="#A0616A"/>
<path d="M182.857 30.4916L191.679 34.6092C191.679 34.6092 196.219 37.3839 196.303 39.2337C196.388 41.0834 195.797 49.9057 195.797 49.9057C195.797 49.9057 199.327 53.4363 196.975 60.4933L198.153 72.2592L171.682 86.3774L174.034 61.6716L172.856 38.7311L182.857 30.4958V30.4916Z" fill="#3F3D56"/>
<path d="M174.938 97.438C175.973 99.8073 178.034 101.197 179.542 100.538C181.049 99.879 181.434 97.4254 180.403 95.0561C180.002 94.1017 179.381 93.2613 178.587 92.5982L174.081 82.6103L169.44 84.8233L174.372 94.4353C174.318 95.4658 174.512 96.4963 174.938 97.438Z" fill="#A0616A"/>
<path d="M179.622 40.2008C179.622 40.2008 173.152 36.0832 170.8 40.7878C168.447 45.4925 163.151 69.6113 163.151 69.6113L170.8 92.5518L177.857 89.6124L171.678 64.9235L179.618 40.2008H179.622Z" fill="#3F3D56"/>
<path d="M212.786 93.7343C214.619 95.5587 217.048 96.0908 218.209 94.921C219.37 93.7512 218.821 91.3313 216.989 89.5068C216.266 88.7678 215.375 88.2145 214.396 87.8893L206.528 80.2622L203.027 84.0293L211.152 91.1454C211.481 92.1252 212.043 93.0121 212.786 93.73V93.7343Z" fill="#A0616A"/>
<path d="M196.054 38.7945C196.054 38.7945 184.774 38.3341 184.318 43.5751C183.866 48.8161 191.578 72.2043 191.578 72.2043L207.14 90.7147L212.618 85.3807L197.782 64.7039L196.058 38.7945H196.054Z" fill="#3F3D56"/>
<path d="M163.024 81.2631L153.602 52.6593C145.984 45.9486 137.719 62.1108 115.534 52.9464L122.511 85.3005C139.286 76.2333 153.721 72.6815 163.024 81.2631Z" fill="white"/>
<path d="M122.511 86.1451C122.452 86.1451 122.389 86.1325 122.334 86.1071C122.211 86.0522 122.127 85.9424 122.097 85.8115L115.121 53.4575C115.087 53.3054 115.142 53.1449 115.264 53.0436C115.387 52.9422 115.551 52.9169 115.695 52.976C128.297 58.179 136.431 55.0834 142.373 52.8198C146.888 51.1009 150.452 49.741 153.881 52.7606C153.936 52.8113 153.978 52.8747 154.004 52.9464L163.426 81.5503C163.485 81.7319 163.413 81.9346 163.253 82.036C163.092 82.1415 162.877 82.1204 162.737 81.9895C154.561 74.4468 141.841 75.7476 122.714 86.0902C122.651 86.124 122.583 86.1409 122.511 86.1409V86.1451ZM116.113 54.0572L122.803 85.0851C141.157 75.2577 153.729 73.7416 162.146 80.3847L153.231 53.3265C150.211 50.7419 147.04 51.9498 142.669 53.6137C136.714 55.8816 128.601 58.973 116.113 54.0614V54.0572Z" fill="#3F3D56"/>
<path d="M130.147 39.0309L124.184 40.2641C124.184 40.2641 108.245 49.0357 111.261 52.3594C114.272 55.6831 127.072 56.1096 127.072 56.1096L129.716 52.0173L126.515 50.5181L134.632 43.8243L130.147 39.0309Z" fill="#A0616A"/>
<path d="M146.516 37.1939C146.516 37.1939 140.692 28.2618 135.004 32.24C129.315 36.2183 124.188 40.2641 124.188 40.2641L131.275 49.2131L146.52 37.1939H146.516Z" fill="#E6E6E6"/>
<path d="M137.189 56.0167C137.514 54.4119 135.177 52.5848 131.97 51.9357C128.762 51.2867 125.899 52.0615 125.574 53.6663C125.25 55.2711 127.586 57.0983 130.794 57.7473C134.001 58.3964 136.865 57.6216 137.189 56.0167Z" fill="#A0616A"/>
<path d="M247.324 178.194C249.293 178.194 250.889 176.599 250.889 174.63C250.889 172.661 249.293 171.066 247.324 171.066C245.356 171.066 243.76 172.661 243.76 174.63C243.76 176.599 245.356 178.194 247.324 178.194Z" fill="#3F3D56"/>
<path d="M252.075 183.723C254.044 183.723 255.64 182.127 255.64 180.158C255.64 178.19 254.044 176.594 252.075 176.594C250.107 176.594 248.511 178.19 248.511 180.158C248.511 182.127 250.107 183.723 252.075 183.723Z" fill="#3F3D56"/>
<path d="M287.711 183.723C289.679 183.723 291.275 182.127 291.275 180.158C291.275 178.19 289.679 176.594 287.711 176.594C285.742 176.594 284.146 178.19 284.146 180.158C284.146 182.127 285.742 183.723 287.711 183.723Z" fill="#3F3D56"/>
<path d="M257.295 126.819V88.1132C257.295 83.7802 260.919 82.7075 265.252 82.7075C267.376 82.7075 268.407 82.4625 269.897 83.9744C271.388 85.4864 273.044 86.1156 273.01 88.2399L272.385 126.219L257.291 126.815L257.295 126.819ZM265.674 85.2456C261.806 85.2456 258.14 84.249 258.14 88.1174V125.945L271.557 125.413L272.169 88.2314C272.199 86.3352 269.116 86.5971 267.79 85.2456C266.46 83.8942 267.575 85.2456 265.678 85.2456H265.674Z" fill="#3F3D56"/>
<path d="M246.686 126.35L246.146 168.637C246.137 169.182 246.268 169.718 246.522 170.2L250.517 177.747C251.104 178.857 252.278 179.529 253.532 179.474L288.61 177.928C290.405 177.848 291.795 176.328 291.714 174.533L289.514 126.249C289.434 124.513 288.006 123.145 286.266 123.145H249.934C248.156 123.145 246.708 124.576 246.682 126.354L246.686 126.35Z" fill="#E6E6E6"/>
<path d="M260.513 145.435L259.669 145.393L259.981 139.134C260.15 135.764 262.925 133.061 266.299 132.981L281.237 132.634C284.252 132.584 286.752 134.868 286.917 137.884L287.234 143.606L286.389 143.653L286.072 137.93C285.929 135.375 283.796 133.416 281.254 133.479L266.316 133.825C263.381 133.893 260.969 136.245 260.822 139.176L260.509 145.435H260.513Z" fill="#3F3D56"/>
<path d="M259.918 175.749L259.077 175.665L260.898 157.902C261.235 154.616 263.976 152.027 267.275 151.88L281.845 151.225C283.682 151.14 285.426 151.791 286.761 153.054C288.095 154.316 288.838 156.022 288.859 157.86L289.024 173.325L288.18 173.333L288.015 157.868C287.998 156.263 287.348 154.772 286.182 153.666C285.016 152.559 283.483 151.994 281.887 152.065L267.317 152.72C264.432 152.851 262.038 155.11 261.742 157.982L259.922 175.745L259.918 175.749Z" fill="#3F3D56"/>
<path d="M253.389 174.52L252.544 174.508L253.076 133.914C253.114 131.139 255.315 128.901 258.089 128.817L286.807 127.972L286.832 128.817L258.115 129.661C255.792 129.729 253.951 131.6 253.921 133.922L253.389 174.516V174.52Z" fill="#3F3D56"/>
<path d="M253.465 168.739H252.878V131.769C252.878 130.599 251.927 129.644 250.753 129.644H247.472V128.8H250.753C252.303 128.8 253.579 129.995 253.71 131.507C253.718 131.591 253.722 131.68 253.722 131.769V149.274L253.465 168.739Z" fill="#3F3D56"/>
<path d="M199.965 20.6473C199.965 26.0615 195.577 30.4494 190.163 30.4494C184.749 30.4494 180.361 26.0615 180.361 20.6473C180.361 15.2331 184.749 10.8452 190.163 10.8452C195.577 10.8452 199.965 15.2331 199.965 20.6473Z" fill="#A0616A"/>
<path d="M189.382 7.47088C189.665 7.63558 190.045 7.38641 190.138 7.06967C190.231 6.75293 190.121 6.4193 190.019 6.10678C189.842 5.5831 189.669 5.06364 189.491 4.53996C189.116 3.42926 188.719 2.28054 187.908 1.4359C186.683 0.16049 184.732 -0.164698 182.979 0.0718022C180.728 0.375874 178.507 1.59216 177.46 3.61086C176.412 5.62955 176.86 8.44221 178.752 9.70073C176.053 12.7921 175.116 16.2383 175.263 20.3348C175.411 24.4355 179.879 28.2069 182.793 31.0955C183.444 30.7028 184.035 28.853 183.676 28.1815C183.317 27.51 183.832 26.733 183.389 26.1122C182.945 25.4956 182.574 26.4796 183.021 25.863C183.304 25.4744 182.202 24.5833 182.62 24.3511C184.652 23.2277 185.327 20.6938 186.603 18.7553C188.144 16.4156 190.775 14.8319 193.567 14.5701C195.104 14.4265 196.726 14.6884 197.984 15.5794C199.243 16.4705 200.058 18.0627 199.767 19.5788C200.522 18.8102 200.898 17.6868 200.759 16.6184C200.615 15.5499 199.961 14.5617 199.027 14.0169C199.593 12.146 199.108 9.99214 197.794 8.5478C196.481 7.09923 191.155 7.3484 189.238 7.72849L189.386 7.4751L189.382 7.47088Z" fill="#2F2E41"/>
<path d="M189.086 14.625C186.548 14.8995 184.715 17.0998 183.165 19.1312C182.274 20.301 181.336 21.5933 181.362 23.0672C181.383 24.5538 182.38 25.8334 182.857 27.2397C183.634 29.5456 182.878 32.2865 181.028 33.866C182.857 34.2123 184.833 32.844 185.146 31.0069C185.513 28.8741 183.896 26.8132 184.086 24.6551C184.255 22.7547 185.754 21.2935 187.025 19.8702C188.3 18.447 189.496 16.5635 188.909 14.7475L189.086 14.625Z" fill="#2F2E41"/>
</g>
<defs>
<clipPath id="clip0_1_338">
<rect width="309" height="183.723" fill="white"/>
</clipPath>
</defs>
</svg>
