<svg width="16" height="20" viewBox="0 0 16 20" fill="none" xmlns="http://www.w3.org/2000/svg">
<path d="M6.95 11.0655L5.35775 9.473C5.20892 9.32433 5.03483 9.24842 4.8355 9.24525C4.63617 9.24208 4.45892 9.318 4.30375 9.473C4.14875 9.62817 4.07125 9.80642 4.07125 10.0078C4.07125 10.2089 4.14875 10.3871 4.30375 10.5423L6.31725 12.5713C6.49808 12.7519 6.709 12.8423 6.95 12.8423C7.191 12.8423 7.40192 12.7519 7.58275 12.5713L11.727 8.427C11.8757 8.27817 11.9516 8.1015 11.9548 7.897C11.9579 7.69267 11.882 7.51292 11.727 7.35775C11.5718 7.20258 11.3936 7.125 11.1923 7.125C10.9911 7.125 10.8129 7.20258 10.6578 7.35775L6.95 11.0655ZM8 19.371C7.89617 19.371 7.79425 19.3627 7.69425 19.346C7.59425 19.3293 7.49742 19.3043 7.40375 19.271C5.29492 18.521 3.61708 17.1913 2.37025 15.2818C1.12342 13.3721 0.5 11.3115 0.5 9.1V4.59625C0.5 4.21792 0.609667 3.87658 0.829 3.57225C1.04817 3.26775 1.33017 3.04692 1.675 2.90975L7.36725 0.78475C7.58142 0.70775 7.79233 0.66925 8 0.66925C8.20767 0.66925 8.41858 0.70775 8.63275 0.78475L14.325 2.90975C14.6698 3.04692 14.9518 3.26775 15.171 3.57225C15.3903 3.87658 15.5 4.21792 15.5 4.59625V9.1C15.5 11.3115 14.8766 13.3721 13.6298 15.2818C12.3829 17.1913 10.7051 18.521 8.59625 19.271C8.50258 19.3043 8.40575 19.3293 8.30575 19.346C8.20575 19.3627 8.10383 19.371 8 19.371ZM8 17.9C9.73333 17.35 11.1667 16.25 12.3 14.6C13.4333 12.95 14 11.1167 14 9.1V4.5865C14 4.5225 13.9823 4.46483 13.947 4.4135C13.9118 4.36217 13.8622 4.32367 13.798 4.298L8.10575 2.173C8.07375 2.16017 8.0385 2.15375 8 2.15375C7.9615 2.15375 7.92625 2.16017 7.89425 2.173L2.202 4.298C2.13783 4.32367 2.08817 4.36217 2.053 4.4135C2.01767 4.46483 2 4.5225 2 4.5865V9.1C2 11.1167 2.56667 12.95 3.7 14.6C4.83333 16.25 6.26667 17.35 8 17.9Z" fill="#919191"/>
</svg>
